<?xml version="1.0" encoding="UTF-8"?><svg id="Warstwa_1" xmlns="http://www.w3.org/2000/svg" viewBox="0 0 935.52 1237.96"><defs><style>.cls-1{fill:#c4c4c4;}.cls-2{fill:none;stroke:#fff;stroke-linecap:round;stroke-linejoin:round;stroke-width:2.3px;}</style>
</defs><path class="cls-1" d="M17.32,0H918.19c9.57,0,17.32,6.84,17.32,15.28V1222.68c0,8.44-7.76,15.28-17.32,15.28H17.32c-9.57,0-17.32-6.84-17.32-15.28V15.28C0,6.84,7.76,0,17.32,0Z"/><g>
<ellipse class="cls-2" cx="467.83" cy="547.02" rx="73.55" ry="73.44"/><path class="cls-2" d="M351.15,722.6c-.02-5.16,1.14-10.26,3.38-14.91,7.05-14.07,26.91-21.52,43.4-24.9,11.89-2.53,23.94-4.23,36.07-5.07,22.46-1.97,45.04-1.97,67.5,0,12.13,.85,24.18,2.54,36.08,5.07,16.48,3.38,36.35,10.13,43.4,24.9,4.52,9.48,4.52,20.49,0,29.97-7.05,14.78-26.91,21.53-43.4,24.76-11.88,2.64-23.94,4.38-36.08,5.21-18.28,1.55-36.64,1.83-54.95,.85-4.23,0-8.31,0-12.54-.85-12.09-.81-24.1-2.56-35.93-5.21-16.63-3.23-36.35-9.99-43.54-24.76-2.23-4.7-3.39-9.85-3.38-15.05Z"/></g></svg>